<svg width="12" height="12" viewBox="0 0 12 12" fill="none" xmlns="http://www.w3.org/2000/svg">
<path d="M8.34252 6.86272C8.34252 6.79743 8.28448 6.74664 8.22645 6.74664H7.36316C7.30513 6.74664 7.25435 6.79743 7.25435 6.86272V7.37053C7.25435 7.82756 6.26774 8.02343 5.74542 8.02343C4.37432 8.02343 3.38772 6.95702 3.38772 5.49888C3.38772 4.09151 4.3308 3.11216 5.68738 3.11216C6.28225 3.11216 7.16004 3.32254 7.16004 3.77957V4.28738C7.16004 4.35267 7.21082 4.40345 7.27611 4.40345H8.13214C8.19743 4.40345 8.24821 4.35267 8.24821 4.28738V3.49664C8.24821 2.34319 6.3693 2.08928 5.65111 2.08928C3.68515 2.08928 2.20524 3.56919 2.20524 5.53515C2.20524 7.53738 3.69966 9.05356 5.68738 9.05356C6.71026 9.05356 8.34252 8.67633 8.34252 7.65345V6.86272ZM5.57131 0.928565C8.13214 0.928565 10.2142 3.0106 10.2142 5.57142C10.2142 8.13225 8.13214 10.2143 5.57131 10.2143C3.01049 10.2143 0.928454 8.13225 0.928454 5.57142C0.928454 3.0106 3.01049 0.928565 5.57131 0.928565ZM11.1427 5.57142C11.1427 2.49553 8.6472 -7.09295e-06 5.57131 -7.09295e-06C2.49542 -7.09295e-06 -0.000117302 2.49553 -0.000117302 5.57142C-0.000117302 8.64731 2.49542 11.1429 5.57131 11.1429C8.6472 11.1429 11.1427 8.64731 11.1427 5.57142Z" fill="white"/>
</svg>
